            <svg width="52" height="52" viewBox="0 0 52 52" fill="none" xmlns="http://www.w3.org/2000/svg">
              <path d="M19.891 19.5781H32.7346" stroke="#949494" stroke-width="2" stroke-linecap="round" stroke-linejoin="round"/>
              <path d="M19.891 26H32.7346" stroke="#949494" stroke-width="2" stroke-linecap="round" stroke-linejoin="round"/>
              <path d="M19.891 32.4219H26.3128" stroke="#949494" stroke-width="2" stroke-linecap="round" stroke-linejoin="round"/>
              <path d="M32.0724 43.66H10.2583C9.83252 43.66 9.42417 43.4908 9.12309 43.1898C8.82201 42.8887 8.65286 42.4803 8.65286 42.0545V9.94554C8.65286 9.51975 8.82201 9.11139 9.12309 8.81031C9.42417 8.50923 9.83252 8.34009 10.2583 8.34009H42.3673C42.7931 8.34009 43.2014 8.50923 43.5025 8.81031C43.8036 9.11139 43.9728 9.51975 43.9728 9.94554V31.7596C43.9735 31.9681 43.9331 32.1746 43.8539 32.3675C43.7747 32.5603 43.6582 32.7356 43.5112 32.8834L33.1962 43.1984C33.0484 43.3455 32.8731 43.4619 32.6802 43.5411C32.4874 43.6203 32.2808 43.6607 32.0724 43.66V43.66Z" stroke="#949494" stroke-width="2" stroke-linecap="round" stroke-linejoin="round"/>
              <path d="M43.8323 32.4219H32.7346V43.5195" stroke="#949494" stroke-width="2" stroke-linecap="round" stroke-linejoin="round"/>
              </svg>